<?xml version="1.0" encoding="UTF-8" standalone="no"?>
<svg
   xmlns:dc="http://purl.org/dc/elements/1.1/"
   xmlns:cc="http://creativecommons.org/ns#"
   xmlns:rdf="http://www.w3.org/1999/02/22-rdf-syntax-ns#"
   xmlns:svg="http://www.w3.org/2000/svg"
   xmlns="http://www.w3.org/2000/svg"
   xmlns:sodipodi="http://sodipodi.sourceforge.net/DTD/sodipodi-0.dtd"
   xmlns:inkscape="http://www.inkscape.org/namespaces/inkscape"
   viewBox="0 0 149.99999 150.00001"
   version="1.1"
   id="svg833"
   sodipodi:docname="logo.svg"
   inkscape:version="0.92.3 (2405546, 2018-03-11)"
   width="150"
   height="150">
  <metadata
     id="metadata837">
    <rdf:RDF>
      <cc:Work
         rdf:about="">
        <dc:format>image/svg+xml</dc:format>
        <dc:type
           rdf:resource="http://purl.org/dc/dcmitype/StillImage" />
        <dc:title></dc:title>
      </cc:Work>
    </rdf:RDF>
  </metadata>
  <sodipodi:namedview
     pagecolor="#ffffff"
     bordercolor="#666666"
     borderopacity="1"
     objecttolerance="10"
     gridtolerance="10"
     guidetolerance="10"
     inkscape:pageopacity="0"
     inkscape:pageshadow="2"
     inkscape:window-width="1366"
     inkscape:window-height="715"
     id="namedview835"
     showgrid="false"
     inkscape:zoom="2"
     inkscape:cx="27.189532"
     inkscape:cy="75.693598"
     inkscape:window-x="-8"
     inkscape:window-y="22"
     inkscape:window-maximized="1"
     inkscape:current-layer="svg833"
     inkscape:pagecheckerboard="false"
     inkscape:showpageshadow="false" />
  <defs
     id="defs829">
    <style
       id="style827">.cls-1{fill:#09d3ac;}</style>
  </defs>
  <path
     class="cls-1"
     d="m 136.32002,75.068086 c 0,-8.566399 -10.08324,-16.163016 -25.5873,-20.800558 3.72993,-15.752724 2.10119,-28.285278 -5.32136,-32.524961 -1.82002,-1.01083 -3.87383,-1.525355 -5.955453,-1.491971 -6.92523,0 -15.678125,4.836472 -24.518051,13.203941 -8.839927,-8.305304 -17.567955,-13.116909 -24.480753,-13.116909 -2.113887,-0.04671 -4.201276,0.477286 -6.042481,1.516837 -7.385255,4.252116 -8.914525,16.710071 -5.23433,32.388197 -15.429464,4.612676 -25.462967,12.147128 -25.487833,20.676227 -0.02487,8.529099 10.095668,16.163016 25.59973,20.788125 -3.729926,15.765166 -2.113625,28.285286 5.321363,32.524966 1.813282,1.01647 3.864644,1.53145 5.943016,1.49198 6.937664,0 15.690559,-4.83648 24.530485,-13.20395 8.827493,8.30531 17.555522,13.11691 24.480752,13.11691 2.112995,0.0388 4.198345,-0.48465 6.042485,-1.51683 7.38525,-4.25212 8.90209,-16.71007 5.23433,-32.326045 15.42946,-4.674841 25.46297,-12.209293 25.4754,-20.725959 z M 80.632211,36.264415 c 10.1827,-9.113454 16.548441,-10.095668 18.811263,-10.095668 v 0 c 1.049456,-0.03372 2.088656,0.215351 3.008806,0.721119 3.55587,2.026593 4.97324,9.175619 3.84183,18.649633 -0.28981,2.419452 -0.7048,4.822261 -1.24331,7.198759 -5.152014,-1.197501 -10.376746,-2.057214 -15.640829,-2.57365 -3.134742,-4.398947 -6.557178,-8.585613 -10.244865,-12.532553 0.460024,-0.460025 0.957348,-0.920049 1.467105,-1.36764 z M 49.810583,82.117647 c 0.969781,1.864964 2.001727,3.729927 3.070973,5.607324 1.069245,1.877396 2.188223,3.779659 3.431532,5.657055 -3.369367,-0.48489 -6.639269,-1.094112 -9.747541,-1.815231 0.870316,-3.158005 1.976861,-6.266277 3.245036,-9.449148 z M 46.366617,58.445046 c 3.145572,-0.733553 6.44034,-1.342774 9.85944,-1.815231 -1.243309,1.840097 -2.312555,3.729926 -3.431533,5.706788 -1.118978,1.976861 -2.101192,3.729926 -3.05854,5.619756 -1.268175,-3.232603 -2.391297,-6.403041 -3.369367,-9.511313 z m 6.47764,16.585741 c 1.541703,-3.25747 3.236747,-6.514939 5.085133,-9.772408 1.864963,-3.25747 3.866691,-6.427907 5.930583,-9.461581 3.618029,-0.273528 7.347956,-0.422725 11.189781,-0.410292 3.841824,0.01243 7.459853,0.149197 11.053016,0.435158 2.063893,3.008808 4.040754,6.216544 5.905717,9.386982 1.864963,3.170438 3.58073,6.490073 5.122433,9.735109 -1.52927,3.257469 -3.232603,6.527372 -5.072701,9.759975 -1.840097,3.232603 -3.86669,6.44034 -5.930583,9.474014 -3.618029,0.285961 -7.347956,0.422725 -11.18978,0.422725 -3.841825,0 -7.459854,-0.16163 -11.053016,-0.447591 -2.063893,-3.008808 -4.053187,-6.141946 -5.918151,-9.386983 -1.864963,-3.245036 -3.518564,-6.490072 -5.0727,-9.735108 z m 40.85513,-18.363673 c 3.3818,0.472457 6.651703,1.081679 9.747543,1.802798 -0.92005,3.070973 -2.01416,6.216544 -3.28234,9.386982 -0.982211,-1.864963 -2.001724,-3.729927 -3.083403,-5.607323 -1.081678,-1.877396 -2.225523,-3.767226 -3.332067,-5.582457 z m 3.431533,30.983258 c 1.069245,-1.88154 2.088759,-3.758937 3.05854,-5.632189 1.24331,3.232603 2.48662,6.415474 3.35693,9.523746 -3.13313,0.733552 -6.427903,1.33034 -9.847003,1.802798 1.20187,-1.840097 2.362287,-3.738216 3.481265,-5.694355 z M 74.962722,41.859305 c 2.237956,2.387153 4.438613,4.973236 6.589537,7.745814 -2.126058,-0.08703 -4.301849,-0.149197 -6.502505,-0.149197 -2.200657,0 -4.451046,0 -6.626837,0.149197 2.126058,-2.760145 4.301849,-5.358661 6.539805,-7.745814 z M 47.38613,26.939598 c 0.943291,-0.501685 2.003553,-0.742069 3.070973,-0.696253 2.240049,0.09335 4.436753,0.64782 6.452774,1.628735 4.556375,2.148217 8.750878,4.99209 12.433089,8.429634 l 1.454671,1.330341 C 67.147629,41.550134 63.758554,45.703413 60.652236,50.065144 55.359745,50.577857 50.106094,51.433393 44.924379,52.62636 44.377323,50.214341 43.929732,47.852054 43.68107,45.576799 42.388029,36.189816 43.879999,29.028357 47.373697,26.98933 Z M 40.809026,89.97536 C 38.472918,89.262172 36.174053,88.432257 33.921095,87.488742 25.093602,83.758815 19.623043,78.972076 19.623043,74.881589 c 0,-4.090486 5.495425,-8.852359 14.310485,-12.52012 2.212803,-0.916545 4.47017,-1.721562 6.7636,-2.412019 1.554262,5.150996 3.448243,10.193305 5.669489,15.09377 -2.173974,4.85176 -4.030414,9.839647 -5.557591,14.93214 z m 28.596105,23.74721 c -10.1827,9.11345 -16.548441,10.08324 -18.823697,10.08324 -1.049572,0.0349 -2.089104,-0.2142 -3.008807,-0.72112 -3.555864,-2.0266 -4.973236,-9.17562 -3.841825,-18.64965 0.288765,-2.41549 0.703769,-4.814215 1.243309,-7.186323 5.153511,1.187145 10.377836,2.042638 15.640826,2.561216 3.130937,4.401857 6.553572,8.588777 10.244866,12.532567 z m 5.681922,-5.60734 c -2.237956,-2.38715 -4.438613,-4.97323 -6.60197,-7.74581 2.138491,0.0995 4.314281,0.1492 6.514938,0.1492 2.200657,0 4.451046,0 6.626837,-0.13677 -2.150925,2.76015 -4.339148,5.34623 -6.552238,7.73338 z m 27.576597,14.91972 c -0.94335,0.51681 -2.0084,0.77018 -3.083412,0.73356 -2.262822,0 -8.703162,-0.99465 -18.848563,-10.07081 l -1.454671,-1.33034 c 3.645873,-3.91835 7.0308,-8.07163 10.132967,-12.433096 5.297528,-0.505529 10.55578,-1.361137 15.740289,-2.561216 0.54706,2.412019 0.98222,4.774302 1.24331,7.049562 1.23088,9.37456 -0.19892,16.53602 -3.74236,18.56261 z m 13.42773,-35.359712 c -2.12605,0.870316 -4.37644,1.678467 -6.7636,2.399586 -1.5604,-5.150591 -3.45849,-10.192769 -5.68192,-15.09377 2.18395,-4.846275 4.04874,-9.830137 5.58246,-14.919707 2.3361,0.713188 4.63497,1.543103 6.88793,2.486618 8.81506,3.729927 14.29805,8.516666 14.28562,12.607152 -0.0124,4.090487 -5.49543,8.802628 -14.32292,12.470389 z M 74.962722,86.407063 c 10.169111,0.01107 15.273366,-12.277375 8.09142,-19.474981 -7.181942,-7.197604 -19.481479,-2.120136 -19.492563,8.048972 -0.01375,6.306386 5.094742,11.426024 11.401143,11.426009 z m -35.682966,9.299951 c -3.729926,15.765166 -2.113625,28.285286 5.321362,32.524966 1.813283,1.01647 3.864645,1.53145 5.943017,1.49198 6.937664,0 15.690558,-4.83648 24.530485,-13.20395 8.827493,8.30531 17.555522,13.11691 24.480752,13.11691 2.112988,0.0388 4.198348,-0.48465 6.042478,-1.51683 7.38526,-4.25212 8.9021,-16.71007 5.23434,-32.326045 15.42946,-4.625109 25.46296,-12.159561 25.4754,-20.676227 0.0124,-8.516666 -10.08324,-16.163016 -25.5873,-20.800558 3.72993,-15.752724 2.10119,-28.285277 -5.32136,-32.524961 -1.82002,-1.01083 -3.87383,-1.525355 -5.955456,-1.491971 -6.92523,0 -15.678125,4.836472 -24.518051,13.203941 C 66.085496,25.198966 57.357468,20.38736 50.44467,20.38736 c -2.113887,-0.04671 -4.201276,0.477286 -6.042481,1.516837 -7.385255,4.252116 -8.914525,16.710072 -5.23433,32.388197 -15.429464,4.612676 -25.462967,12.147128 -25.487833,20.676227 -0.02487,8.529099 10.108101,16.088417 25.612163,20.738393 z m 30.100509,18.015556 c -10.1827,9.11345 -16.548442,10.08324 -18.823697,10.08324 -1.049573,0.0349 -2.089104,-0.2142 -3.008807,-0.72112 -3.555864,-2.0266 -4.973236,-9.17562 -3.841825,-18.64965 0.288765,-2.41549 0.703769,-4.814215 1.243309,-7.186323 5.15351,1.187145 10.377836,2.042638 15.640826,2.561216 3.130937,4.401857 6.553572,8.588777 10.244865,12.532567 z M 100.20189,67.856894 c -0.982211,-1.864963 -2.001725,-3.729927 -3.083403,-5.607323 -1.081679,-1.877396 -2.237956,-3.729927 -3.381801,-5.582457 3.381801,0.472457 6.651704,1.081679 9.747544,1.802798 -0.90762,3.070973 -2.00173,6.216544 -3.2699,9.386982 z m 3.3818,23.622869 c -3.13313,0.733553 -6.427904,1.330341 -9.847004,1.802798 1.168711,-1.840097 2.312555,-3.738216 3.431533,-5.694354 1.118978,-1.956139 2.138491,-3.833536 3.058541,-5.63219 1.30547,3.294769 2.43689,6.452773 3.33207,9.585912 z M 97.106054,74.881589 c -1.52927,3.25747 -3.232604,6.527372 -5.072701,9.759975 -1.840097,3.232604 -3.86669,6.440341 -5.930583,9.474014 -3.618029,0.285961 -7.347956,0.422725 -11.18978,0.422725 -3.841825,0 -7.459854,-0.16163 -11.053017,-0.447591 -2.063892,-3.008807 -4.053187,-6.141946 -5.91815,-9.386982 -1.864963,-3.245036 -3.568297,-6.490073 -5.122433,-9.735109 1.541703,-3.257469 3.236747,-6.514939 5.085134,-9.772408 1.864963,-3.257469 3.86669,-6.427907 5.930583,-9.461581 3.618029,-0.273528 7.347956,-0.422725 11.18978,-0.410292 3.841825,0.01243 7.459854,0.149197 11.053017,0.435159 2.063892,3.008807 4.040754,6.216544 5.905717,9.386982 1.864963,3.170437 3.593163,6.552238 5.134866,9.797274 z M 56.313088,93.382026 c -3.369367,-0.48489 -6.639269,-1.094112 -9.747541,-1.815231 0.920048,-3.05854 2.026593,-6.216545 3.294768,-9.386982 0.969781,1.864963 2.001727,3.729926 3.070973,5.607323 1.069246,1.877396 2.138491,3.717494 3.3818,5.59489 z M 52.844257,62.299303 c -1.081679,1.864964 -2.101193,3.729927 -3.05854,5.619757 -1.301331,-3.207737 -2.44103,-6.365742 -3.4191,-9.474014 3.145572,-0.733553 6.44034,-1.342774 9.85944,-1.815231 -1.156278,1.840097 -2.262822,3.74236 -3.3818,5.669488 z M 75.07462,108.11523 c -2.237956,-2.38715 -4.438613,-4.97323 -6.601971,-7.74581 2.138492,0.0995 4.314282,0.1492 6.514939,0.1492 2.200657,0 4.451046,0 6.626837,-0.13677 -2.138492,2.76015 -4.326715,5.34623 -6.539805,7.73338 z m 27.57659,14.91972 c -0.94335,0.51681 -2.00839,0.77018 -3.083405,0.73356 -2.262822,0 -8.703162,-0.99465 -18.848563,-10.07081 l -1.454671,-1.33034 c 3.645873,-3.91835 7.0308,-8.07163 10.132967,-12.433096 5.297528,-0.505529 10.55578,-1.361137 15.740292,-2.561216 0.54706,2.412019 0.98222,4.774302 1.24331,7.049562 1.24331,9.37456 -0.18649,16.53602 -3.72993,18.56261 z m 6.56468,-62.986036 c 2.3361,0.713188 4.63496,1.543103 6.88793,2.486618 8.81506,3.729927 14.29805,8.516666 14.28562,12.607152 -0.0124,4.090487 -5.483,8.902092 -14.31049,12.569853 -2.12606,0.870317 -4.37645,1.678467 -6.7636,2.399587 -1.5604,-5.150592 -3.45849,-10.19277 -5.68192,-15.093771 2.18801,-4.878618 4.05285,-9.895832 5.58246,-15.019171 z M 80.619777,36.314147 c 10.1827,-9.113454 16.548442,-10.095668 18.811264,-10.095668 v 0 c 1.049449,-0.03372 2.088659,0.215351 3.008809,0.721119 3.55586,2.026594 4.97324,9.17562 3.84183,18.649634 -0.28981,2.419451 -0.7048,4.82226 -1.24331,7.198758 C 99.886353,51.59049 94.661621,50.730776 89.397538,50.214341 86.262796,45.815393 82.84036,41.628727 79.152673,37.681787 79.62513,37.17203 80.122454,36.712006 80.632211,36.264415 Z m -5.657055,5.545158 c 2.237956,2.387153 4.438613,4.973236 6.589537,7.745814 -2.126058,-0.08703 -4.301849,-0.149197 -6.502505,-0.149197 -2.200657,0 -4.451046,0 -6.626837,0.149197 2.126058,-2.760145 4.301849,-5.358661 6.539805,-7.745814 z M 47.38613,26.939598 c 0.943291,-0.501685 2.003553,-0.742069 3.070973,-0.696253 2.240049,0.09335 4.436753,0.64782 6.452774,1.628735 4.556375,2.148217 8.750878,4.99209 12.433089,8.429634 l 1.454671,1.330341 C 67.147629,41.550134 63.758554,45.703413 60.652236,50.065144 55.359745,50.577857 50.106094,51.433393 44.924379,52.62636 44.377323,50.214341 43.929732,47.852054 43.68107,45.576799 42.388029,36.189816 43.879999,29.028357 47.373697,26.98933 Z M 33.933528,62.361469 c 2.212803,-0.916545 4.47017,-1.721562 6.7636,-2.412019 1.554262,5.150996 3.448243,10.193305 5.669489,15.09377 -2.181925,4.847107 -4.046671,9.830836 -5.582457,14.919707 -2.336108,-0.713189 -4.634973,-1.543103 -6.887931,-2.486618 -8.827493,-3.729927 -14.298053,-8.516666 -14.298053,-12.607153 0,-4.090486 5.520292,-8.839926 14.335352,-12.507687 z m 41.029194,1.243309 c -10.169108,-0.01107 -15.273361,12.277374 -8.09142,19.47498 7.181942,7.197605 19.481485,2.120137 19.492563,-8.048971 0.04836,-6.330638 -5.070321,-11.488359 -11.401143,-11.488175 z m 0,0 c -10.169108,-0.01107 -15.273361,12.277374 -8.09142,19.47498 7.181942,7.197605 19.481485,2.120137 19.492563,-8.048971 0.04836,-6.330638 -5.070321,-11.488359 -11.401143,-11.488175 z m 0,0 c -10.169108,-0.01107 -15.273361,12.277374 -8.09142,19.47498 7.181942,7.197605 19.481485,2.120137 19.492563,-8.048971 0.04836,-6.330638 -5.070321,-11.488359 -11.401143,-11.488175 z m 61.357298,11.488174 c 0,-8.566398 -10.08324,-16.163016 -25.5873,-20.800558 3.72993,-15.752724 2.10119,-28.285278 -5.32136,-32.524961 -1.82002,-1.01083 -3.87383,-1.525355 -5.955453,-1.491971 -6.92523,0 -15.678125,4.836472 -24.518051,13.203941 -8.839927,-8.305304 -17.567955,-13.116909 -24.480753,-13.116909 -2.113887,-0.04671 -4.201276,0.477286 -6.042481,1.516837 -7.385255,4.252116 -8.914525,16.710071 -5.23433,32.388197 -15.429464,4.612676 -25.462967,12.147128 -25.487833,20.676227 -0.02487,8.529099 10.095668,16.163016 25.59973,20.788125 -3.729926,15.76517 -2.113625,28.28529 5.321363,32.52497 1.813282,1.01647 3.864644,1.53145 5.943016,1.49197 6.937664,0 15.690559,-4.83647 24.530485,-13.20394 8.827493,8.3053 17.555522,13.11691 24.480752,13.11691 2.112995,0.0388 4.198345,-0.48465 6.042485,-1.51684 7.38525,-4.25211 8.90209,-16.71007 5.23433,-32.326039 15.42946,-4.699707 25.46297,-12.234159 25.4754,-20.750825 z M 80.632211,36.264415 c 10.1827,-9.113454 16.548441,-10.095668 18.811263,-10.095668 v 0 c 1.049456,-0.03372 2.088656,0.215351 3.008806,0.721119 3.55587,2.026593 4.97324,9.175619 3.84183,18.649633 -0.28981,2.419452 -0.7048,4.822261 -1.24331,7.198759 -5.152014,-1.197501 -10.376746,-2.057214 -15.640829,-2.57365 -3.134742,-4.398947 -6.557178,-8.585613 -10.244865,-12.532553 0.460024,-0.460025 0.957348,-0.920049 1.467105,-1.36764 z M 49.810583,82.117647 c 0.969781,1.864964 2.001727,3.729927 3.070973,5.607324 1.069245,1.877396 2.188223,3.779659 3.431532,5.657055 -3.369367,-0.48489 -6.639269,-1.094112 -9.747541,-1.815231 0.870316,-3.158005 1.976861,-6.266277 3.245036,-9.449148 z M 46.366617,58.445046 c 3.145572,-0.733553 6.44034,-1.342774 9.85944,-1.815231 -1.243309,1.840097 -2.312555,3.729926 -3.431533,5.706788 -1.118978,1.976861 -2.101192,3.729926 -3.05854,5.619756 -1.268175,-3.232603 -2.391297,-6.403041 -3.369367,-9.511313 z m 6.47764,16.585741 c 1.541703,-3.25747 3.236747,-6.514939 5.085133,-9.772408 1.864963,-3.25747 3.866691,-6.427907 5.930583,-9.461581 3.618029,-0.273528 7.347956,-0.422725 11.189781,-0.410292 3.841824,0.01243 7.459853,0.149197 11.053016,0.435158 2.063893,3.008808 4.040754,6.216544 5.905717,9.386982 1.864963,3.170438 3.58073,6.490073 5.122433,9.735109 -1.52927,3.257469 -3.232603,6.527372 -5.072701,9.759975 -1.840097,3.232603 -3.86669,6.44034 -5.930583,9.474014 -3.618029,0.285961 -7.347956,0.422725 -11.18978,0.422725 -3.841825,0 -7.459854,-0.16163 -11.053016,-0.447591 -2.063893,-3.008808 -4.053187,-6.141946 -5.918151,-9.386983 -1.864963,-3.245036 -3.518564,-6.490072 -5.0727,-9.735108 z m 40.85513,-18.363673 c 3.3818,0.472457 6.651703,1.081679 9.747543,1.802798 -0.92005,3.070973 -2.01416,6.216544 -3.28234,9.386982 -0.982211,-1.864963 -2.001724,-3.729927 -3.083403,-5.607323 -1.081678,-1.877396 -2.225523,-3.767226 -3.332067,-5.582457 z m 3.431533,30.983258 c 1.069245,-1.88154 2.088759,-3.758937 3.05854,-5.632189 1.24331,3.232603 2.48662,6.415474 3.35693,9.523746 -3.13313,0.733552 -6.427903,1.33034 -9.847003,1.802798 1.20187,-1.840097 2.362287,-3.738216 3.481265,-5.694355 z M 74.962722,41.859305 c 2.237956,2.387153 4.438613,4.973236 6.589537,7.745814 -2.126058,-0.08703 -4.301849,-0.149197 -6.502505,-0.149197 -2.200657,0 -4.451046,0 -6.626837,0.149197 2.126058,-2.760145 4.301849,-5.358661 6.539805,-7.745814 z M 47.38613,26.939598 c 0.943291,-0.501685 2.003553,-0.742069 3.070973,-0.696253 2.240049,0.09335 4.436753,0.64782 6.452774,1.628735 4.556375,2.148217 8.750878,4.99209 12.433089,8.429634 l 1.454671,1.330341 C 67.147629,41.550134 63.758554,45.703413 60.652236,50.065144 55.359745,50.577857 50.106094,51.433393 44.924379,52.62636 44.377323,50.214341 43.929732,47.852054 43.68107,45.576799 42.388029,36.189816 43.879999,29.028357 47.373697,26.98933 Z M 40.809026,89.97536 C 38.472918,89.262172 36.174053,88.432257 33.921095,87.488742 25.093602,83.758815 19.623043,78.972076 19.623043,74.881589 c 0,-4.090486 5.495425,-8.852359 14.310485,-12.52012 2.212803,-0.916545 4.47017,-1.721562 6.7636,-2.412019 1.554262,5.150996 3.448243,10.193305 5.669489,15.09377 -2.173974,4.85176 -4.030414,9.839647 -5.557591,14.93214 z m 28.596105,23.74721 c -10.1827,9.11345 -16.548441,10.08324 -18.823697,10.08324 -1.049572,0.0349 -2.089104,-0.2142 -3.008807,-0.72112 -3.555864,-2.0266 -4.973236,-9.17562 -3.841825,-18.64965 0.288765,-2.41549 0.703769,-4.814215 1.243309,-7.186323 5.153511,1.187145 10.377836,2.042638 15.640826,2.561216 3.130937,4.401857 6.553572,8.588777 10.244866,12.532567 z m 5.681922,-5.60734 c -2.237956,-2.38715 -4.438613,-4.97323 -6.60197,-7.74581 2.138491,0.0995 4.314281,0.1492 6.514938,0.1492 2.200657,0 4.451046,0 6.626837,-0.13677 -2.150925,2.76015 -4.339148,5.34623 -6.552238,7.73338 z m 27.576597,14.91972 c -0.94335,0.51681 -2.0084,0.77018 -3.083412,0.73356 -2.262822,0 -8.703162,-0.99465 -18.848563,-10.07081 l -1.454671,-1.33034 c 3.645873,-3.91835 7.0308,-8.07163 10.132967,-12.433096 5.297528,-0.505529 10.55578,-1.361137 15.740289,-2.561216 0.54706,2.412019 0.98222,4.774302 1.24331,7.049562 1.23088,9.37456 -0.19892,16.53602 -3.74236,18.56261 z m 13.42773,-35.359712 c -2.12605,0.870316 -4.37644,1.678467 -6.7636,2.399586 -1.5604,-5.150591 -3.45849,-10.192769 -5.68192,-15.09377 2.18395,-4.846275 4.04874,-9.830137 5.58246,-14.919707 2.3361,0.713188 4.63497,1.543103 6.88793,2.486618 8.81506,3.729927 14.29805,8.516666 14.28562,12.607152 -0.0124,4.090487 -5.49543,8.802628 -14.32292,12.470389 z M 74.962722,86.407063 c 10.169111,0.01107 15.273366,-12.277375 8.09142,-19.474981 -7.181942,-7.197604 -19.481479,-2.120136 -19.492563,8.048972 -0.01375,6.306386 5.094742,11.426024 11.401143,11.426009 z"
     id="path831"
     inkscape:connector-curvature="0"
     style="fill:#09d3ac;stroke-width:1.2433089"
     sodipodi:nodetypes="ccccccccsccccccccccccccccccscccccscccccscscscscscccccsccccccccccsccccccccccccccsccccccccccccccscccccccccccccccccscccscccccccccscccccccscccccccccccsccccccsccccscscscccscscccccsccccccccscccccccccccccscccccccccccccccccscccccccccccccccccsccsccccsccccscccccccccccscccccccccccccccccccscccccscccccscscscscscccccsccccccccccsccccccccccccccsccccccccccccccscccccccccccccccccscccscc" />
</svg>
